<svg xmlns="http://www.w3.org/2000/svg" width="128" height="128" viewBox="0 0 128 128" fill="none">
  <defs>
    <linearGradient id="g" x1="16" y1="12" x2="112" y2="116" gradientUnits="userSpaceOnUse">
      <stop stop-color="#26D2CC"/>
      <stop offset="1" stop-color="#7C3AED"/>
    </linearGradient>
  </defs>
  <rect x="14" y="18" width="100" height="92" rx="22" fill="url(#g)"/>
  <path d="M40 44c0-7 6-12 12-12h24c7 0 12 5 12 12v6h-10v-6c0-2-1-3-3-3H53c-2 0-3 1-3 3v6H40v-6z" fill="white" opacity="0.92"/>
  <path d="M40 58h48v26c0 8-6 14-14 14H54c-8 0-14-6-14-14V58z" fill="white" opacity="0.92"/>
  <path d="M92 30l3 7 7 3-7 3-3 7-3-7-7-3 7-3 3-7z" fill="white" opacity="0.95"/>
</svg>
