<svg xmlns="http://www.w3.org/2000/svg" width="640" height="160" viewBox="0 0 640 160" fill="none">
  <defs>
    <linearGradient id="g" x1="40" y1="20" x2="160" y2="140" gradientUnits="userSpaceOnUse">
      <stop stop-color="#26D2CC"/>
      <stop offset="1" stop-color="#7C3AED"/>
    </linearGradient>
  </defs>

  <!-- Mark -->
  <g transform="translate(24,24)">
    <rect x="0" y="18" width="112" height="94" rx="22" fill="url(#g)"/>
    <path d="M34 45c0-7 6-13 13-13h18c7 0 13 6 13 13v6h-10v-6c0-2-1-3-3-3H47c-2 0-3 1-3 3v6H34v-6z" fill="white" opacity="0.92"/>
    <path d="M34 60h68v30c0 10-8 18-18 18H52c-10 0-18-8-18-18V60z" fill="white" opacity="0.92"/>
    <!-- tiny sparkle -->
    <path d="M92 32l3 7 7 3-7 3-3 7-3-7-7-3 7-3 3-7z" fill="white" opacity="0.95"/>
  </g>

  <!-- Wordmark -->
  <g transform="translate(160,52)" fill="white">
    <text x="0" y="34" font-family="Inter, ui-sans-serif, system-ui" font-size="34" font-weight="800">
      Simple Job Tracker
    </text>
    <text x="0" y="64" font-family="Inter, ui-sans-serif, system-ui" font-size="16" font-weight="500" opacity="0.8">
      Personal AI-assisted job tracking (admin-only)
    </text>
  </g>
</svg>
